# xmcd
#
# Track frame offsets: 
#        150
#        21053
#        39914
#        61857
#        80788
#        99317
#        130636
#
# Disc length: 1749 seconds
#
# Revision: 0
# Processed by: cddbd v1.5.2PL0 Copyright (c) Steve Scherf et al.
# Submitted via: ExactAudioCopy v0.99pb5
#
DISCID=4a06d307
DTITLE=Slapshock - Cariño Brutal
DYEAR=2009
DGENRE=Rock
TTITLE0=Stronger
TTITLE1=Alive
TTITLE2=Like Eskimo
TTITLE3=Forever
TTITLE4=Cant Stop Us Now
TTITLE5=Carino Brutal
TTITLE6=Data Track
EXTD=
EXTT0=
EXTT1=
EXTT2=
EXTT3=
EXTT4=
EXTT5=
EXTT6=
PLAYORDER=
